<svg width="600" height="600" xmlns="http://www.w3.org/2000/svg"><rect id="backgroundrect" width="100%" height="100%" x="0" y="0" fill="none" stroke="none"/>
  
<g class="currentLayer" style=""><title>Layer 1</title><g id="svg_1" class="">
    <path d="M489.7513168540245,53.67794441703791 C540.2377480008472,85.46322918206624 583.0661349536495,122.15651225941383 595.404083022142,164.3421084563306 C607.6002499201168,206.6445783133313 589.4478456617908,254.55616362575893 589.5896701110541,309.7129708173925 C589.7314512815719,364.9866070914686 608.4511533369514,427.62229432719323 586.6115297915057,477.63737371739626 C564.7719062460601,527.6524174454862 502.51473827030713,565.1636824104971 431.890490411708,584.7958183082264 C361.1244181038455,604.4279185438427 282.27482825417246,606.2976118082806 216.75595761783552,584.0946298408926 C151.2370545224394,562.0085839422864 99.19064099121078,515.7329267430723 60.61674948320888,466.769594391757 C22.04285797520697,417.9231267849973 -3.0585331489410237,366.1551832127989 3.464980369090881,318.5941564719251 C9.988515526495576,271.0330940689382 48.27877977534354,227.56208375272035 83.5909037046431,190.75193593081713 C118.76122482405208,154.05865285346954 150.95340562391266,124.02624118596486 190.3782113684356,88.03409308278151 C229.66116020463596,51.925080235042515 276.17676644455787,9.973204611708752 328.50678559556764,2.377459823062054 C380.97862919584077,-5.101420221029002 439.26492898594734,21.775830569567006 489.7513168540245,53.67794441703791 z" fill="#eb144c" id="svg_2"/>
  </g></g></svg>