<?xml version="1.0" standalone="no"?>
<svg
  width="600"
  height="600"
  viewBox="0 0 600 600"
  xmlns="http://www.w3.org/2000/svg"
>
  <g transform="translate(300,300)">
    <path d="M136.4,-186.7C181.9,-154.7,227.4,-121.7,222.8,-84.5C218.1,-47.4,163.3,-6.1,147.1,49C130.9,104.1,153.3,173,135.2,207C117.2,240.9,58.6,240,21.1,211C-16.5,182,-32.9,125,-69.5,97C-106.1,69.1,-162.9,70.2,-187.7,48.2C-212.4,26.2,-205.1,-19.1,-191.2,-62.2C-177.3,-105.4,-156.9,-146.6,-123.9,-182.7C-90.9,-218.8,-45.5,-249.9,0,-249.9C45.5,-249.9,90.9,-218.8,136.4,-186.7Z" fill="#00d084" />
  </g>
</svg>
    