<?xml version="1.0" standalone="no"?>
<svg
  width="600"
  height="600"
  viewBox="0 0 600 600"
  xmlns="http://www.w3.org/2000/svg"
>
  <g transform="translate(300,300)">
    <path d="M99.9,-159.7C127.1,-138.1,145,-106.2,169.1,-71.8C193.3,-37.4,223.9,-0.4,212.6,25.7C201.3,51.9,148.3,67.2,118.8,105.2C89.4,143.3,83.6,204.1,58.7,220.8C33.9,237.6,-10,210.4,-59.2,197.7C-108.4,185,-163,186.8,-182.8,160.4C-202.5,134,-187.4,79.4,-185.2,32.4C-183,-14.6,-193.9,-54.1,-183.9,-87.3C-173.9,-120.6,-143.2,-147.8,-109.1,-166.2C-75,-184.7,-37.5,-194.3,-0.5,-193.5C36.4,-192.6,72.8,-181.3,99.9,-159.7Z" fill="#af456d" />
  </g>
</svg>
    