<?xml version="1.0" standalone="no"?>
<svg
  width="600"
  height="600"
  viewBox="0 0 600 600"
  xmlns="http://www.w3.org/2000/svg"
>
  <g transform="translate(300,300)">
    <path d="M97.9,-165.1C126.5,-133.9,149.2,-106.2,170.2,-73.8C191.2,-41.3,210.4,-4.2,215.5,38.2C220.6,80.5,211.6,128,182.4,153.5C153.2,179,104,182.6,62.9,178.1C21.9,173.7,-10.9,161.2,-35,143.2C-59.1,125.1,-74.5,101.5,-82.9,79C-91.3,56.5,-92.7,35,-99.7,12C-106.7,-11.1,-119.3,-35.7,-113.5,-53.3C-107.8,-71,-83.6,-81.8,-61.6,-116.1C-39.6,-150.4,-19.8,-208.2,7.4,-219.7C34.6,-231.2,69.2,-196.3,97.9,-165.1Z" fill="#f78da7" />
  </g>
</svg>
    