<?xml version="1.0" standalone="no"?>
<svg
  width="600"
  height="600"
  viewBox="0 0 600 600"
  xmlns="http://www.w3.org/2000/svg"
>
  <g transform="translate(300,300)">
    <path d="M130.4,-169.7C168,-152.2,196.7,-112.7,191.6,-74.9C186.4,-37.1,147.4,-0.9,120.8,26.4C94.2,53.7,80,72.1,62,93.3C43.9,114.4,21.9,138.2,-2,140.9C-25.9,143.6,-51.7,125.2,-85.5,109.2C-119.3,93.1,-160.9,79.5,-194.6,46.5C-228.3,13.6,-253.9,-38.6,-248.7,-88.8C-243.4,-139,-207.2,-187.2,-160.6,-201.8C-114,-216.3,-57,-197.1,-5.3,-189.9C46.4,-182.6,92.9,-187.2,130.4,-169.7Z" fill="#fcb900" />
  </g>
</svg>
    